<svg width="320" height="266" viewBox="0 0 320 266" fill="none" xmlns="http://www.w3.org/2000/svg">
<rect width="320" height="266" fill="white" fill-opacity="0.01"/>
<path fill-rule="evenodd" clip-rule="evenodd" d="M214.82 53.8025C253.983 69.3855 299.296 51.0081 312.3 86.9068C324.996 121.956 303.056 166.866 276.295 197.523C251.879 225.491 211.139 230.02 173.697 242.285C132.03 255.936 103.968 237.822 70.5613 215.072C38.5369 193.263 0.283451 183.327 5.47677 146.973C9.58886 118.192 33.7463 117.712 53.4263 93.5164C72.5458 70.0106 59.6046 41.8968 113.639 20.9819C170.27 10.8315 186.18 42.4064 214.82 53.8025Z" fill="#F3F1FC"/>
<path d="M304.057 242.5H174.943C174.031 242.499 173.157 242.133 172.511 241.482C171.865 240.831 171.501 239.947 171.5 239.024V146.976C171.501 146.053 171.865 145.169 172.511 144.518C173.157 143.867 174.031 143.501 174.943 143.5H304.057C304.969 143.501 305.843 143.867 306.489 144.518C307.135 145.169 307.499 146.053 307.5 146.976V239.024C307.499 239.947 307.135 240.831 306.489 241.482C305.843 242.133 304.969 242.499 304.057 242.5Z" fill="white" stroke="#424242"/>
<path d="M299.035 148H179.968C178.916 148.001 177.907 148.42 177.164 149.164C176.42 149.909 176.001 150.918 176 151.971V233.029C176.001 234.082 176.42 235.091 177.164 235.836C177.907 236.58 178.916 236.999 179.968 237H299.035C300.087 236.999 301.095 236.58 301.838 235.835C302.582 235.091 302.999 234.082 303 233.029V151.971C302.999 150.918 302.582 149.909 301.838 149.165C301.095 148.42 300.087 148.001 299.035 148Z" fill="white"/>
<path d="M250.107 186.961C252.08 178.368 246.713 169.803 238.12 167.83C229.527 165.857 220.961 171.224 218.988 179.817C217.016 188.41 222.382 196.976 230.976 198.949C239.569 200.921 248.134 195.554 250.107 186.961Z" fill="#9E616A"/>
<path d="M280.804 222.16C280.215 219.421 278.884 216.891 276.952 214.839C275.02 212.787 272.559 211.29 269.832 210.508L269.82 210.501C269.299 210.249 268.748 210.063 268.18 209.947L248.959 206.072L245.108 202L228.723 203.031L227.012 207.714L208.19 215.957L208.502 215.742C207.696 216.06 206.912 216.431 206.154 216.85L206.059 216.892C205.516 217.132 205.012 217.449 204.563 217.833C199.776 221.106 196.614 226.361 196.497 232.219L196 237H284L280.804 222.16Z" fill="#110056"/>
<path d="M252.35 175.009C251.042 170.887 247.213 167.407 242.923 167.518C243.257 166.49 242.686 165.337 241.832 164.683C240.977 164.028 239.897 163.766 238.846 163.546C236.675 163.089 234.412 162.741 232.254 163.255C230.095 163.769 228.049 165.331 227.563 167.513C225.597 165.655 221.962 166.169 220.578 168.501C219.867 169.701 219.766 171.313 220.535 172.477C221.3 173.633 222.747 174.153 224.124 174.218C225.5 174.284 226.863 173.973 228.233 173.827C231.507 173.481 234.964 174.146 237.61 176.119C240.256 178.093 241.947 181.477 241.476 184.762C242.534 184.08 244.058 184.553 244.797 185.577C245.536 186.6 245.594 187.998 245.251 189.216C244.907 190.434 244.211 191.514 243.524 192.573C242.259 194.524 240.995 196.475 239.73 198.426L240.248 198.774C242.156 199.585 244.22 198.068 245.609 196.52C247.951 193.907 249.838 190.914 251.189 187.666C252.848 183.675 253.659 179.13 252.35 175.009Z" fill="#0A0A0A"/>
<path d="M183.935 171.5H18.0651C16.8543 171.499 15.6938 171.018 14.8381 170.165C13.9825 169.312 13.5014 168.156 13.5 166.95V50.0497C13.5014 48.8439 13.9825 47.6877 14.8381 46.8347C15.6937 45.9816 16.8541 45.5014 18.0648 45.5H183.935C185.146 45.5014 186.306 45.9816 187.162 46.8347C188.018 47.6878 188.499 48.8441 188.5 50.0499V166.95C188.499 168.156 188.018 169.312 187.162 170.165C186.306 171.018 185.146 171.499 183.935 171.5Z" fill="white" stroke="#424242"/>
<path d="M175.974 52H25.0297C23.6963 52.0017 22.4179 52.5334 21.4751 53.4785C20.5322 54.4235 20.0017 55.7048 20 57.0413V159.959C20.0017 161.295 20.5322 162.576 21.4751 163.522C22.4179 164.467 23.6963 164.998 25.0297 165H175.974C177.307 164.998 178.585 164.466 179.527 163.521C180.469 162.576 180.999 161.295 181 159.959V57.0413C180.999 55.7052 180.469 54.424 179.527 53.4788C178.585 52.5337 177.307 52.0019 175.974 52Z" fill="white"/>
<path d="M122.187 100.285L121.912 100.78C124.362 94.7612 122.134 87.3449 117.764 82.8067C113.393 78.2686 107.318 76.1939 101.335 75.3708C96.8941 74.7597 92.2843 74.7774 88.0615 76.399C81.9463 78.7472 77.2742 84.1833 73.3734 89.8382C71.589 92.4248 69.8347 95.3735 70.0125 98.6064C70.1775 101.606 71.964 104.152 73.427 106.698C74.8901 109.243 76.1119 112.401 75.0618 115.179C74.4361 116.835 73.1137 118.027 72.0407 119.381C70.9677 120.735 70.085 122.566 70.6033 124.265C71.0226 125.64 72.2841 126.544 73.5814 126.845C74.8786 127.146 76.2243 126.949 77.538 126.752L111.638 121.616C113.955 121.267 116.154 120.365 118.045 118.986C119.937 117.607 121.466 115.792 122.502 113.697C123.538 111.602 124.051 109.288 123.996 106.953C123.941 104.617 123.321 102.33 122.187 100.285Z" fill="#0A0A0A"/>
<path d="M96.5 121C105.613 121 113 113.613 113 104.5C113 95.3873 105.613 88 96.5 88C87.3873 88 80 95.3873 80 104.5C80 113.613 87.3873 121 96.5 121Z" fill="#FFB9B9"/>
<path d="M138.922 142.942C137.819 140.54 136.078 138.481 133.888 136.986C131.697 135.491 129.138 134.617 126.485 134.456L121.734 134.171L121.745 134.22L109.666 127C109.963 127.338 90.0185 128.046 90.0185 128.046L82.6183 134.39L79.5148 134.576C76.8621 134.737 74.3033 135.611 72.1126 137.106C69.9218 138.601 68.1815 140.66 67.0782 143.062L57 165H77.0872L77.5532 163.007C78.0601 163.621 78.5517 164.245 79.0279 164.88H149L138.922 142.942Z" fill="#110056"/>
<path d="M112.934 89.3526C112.496 87.0272 110.133 85.9636 108.108 85.4482C102.235 83.9444 96.1266 83.6077 90.1253 84.4571C85.7505 85.0833 81.2718 86.4641 78.0975 89.8915C75.6217 92.5647 74.1237 96.394 74.0071 100.348C73.9393 102.652 74.3498 105.05 75.492 106.991C76.6344 108.931 78.5814 110.339 80.5914 110.289L80.7949 111C89.3131 109.809 97.2258 104.489 102.209 96.6033C101.274 99.9554 99.4127 102.973 96.8405 105.308C102.591 102.999 107.59 99.1318 111.281 94.1384C112.288 92.796 113.267 91.1218 112.934 89.3526Z" fill="#0A0A0A"/>
</svg>
