<svg width="320" height="266" viewBox="0 0 320 266" fill="none" xmlns="http://www.w3.org/2000/svg">
<rect width="320" height="266" fill="white" fill-opacity="0.01"/>
<path fill-rule="evenodd" clip-rule="evenodd" d="M213.772 55.1919C252.179 70.5016 296.618 52.4465 309.371 87.7154C321.823 122.149 300.306 166.271 274.061 196.391C250.116 223.869 210.162 228.318 173.442 240.368C132.58 253.779 105.059 235.983 72.2964 213.632C40.8899 192.206 3.37445 182.444 8.46757 146.728C12.5003 118.452 36.1917 117.98 55.4921 94.2091C74.2427 71.1157 61.5511 43.4951 114.543 22.9471C170.081 12.9749 185.684 43.9957 213.772 55.1919Z" fill="#F3F1FC"/>
<path d="M266.271 57H59.7298C55.4608 57 52 60.4711 52 64.7529V194.246C52 198.529 55.4608 202 59.7298 202H266.271C270.54 202 274 198.529 274 194.246V64.7529C274 60.4711 270.54 57 266.271 57Z" fill="#F4F4F4" stroke="#424242"/>
<path d="M264.418 63H62.5823C60.6038 63 59 64.6136 59 66.6039V191.396C59 193.387 60.6038 195 62.5823 195H264.418C266.397 195 268 193.387 268 191.396V66.6039C268 64.6136 266.397 63 264.418 63Z" fill="white" stroke="#424242"/>
<path d="M271.781 180.244L271.384 179.93L271.005 180.265L269.991 181.162L269.933 181.203C269.879 181.241 269.8 181.298 269.698 181.368C269.496 181.509 269.207 181.706 268.864 181.93C268.173 182.38 267.274 182.93 266.412 183.355C265.981 183.567 265.572 183.741 265.211 183.856C264.84 183.973 264.569 184.012 264.397 183.997C264.317 183.991 264.281 183.973 264.271 183.968L264.27 183.967C264.268 183.966 264.264 183.964 264.258 183.951C264.232 183.9 264.183 183.709 264.291 183.249C264.879 180.758 264.318 177.709 263.089 174.443C261.853 171.159 259.91 167.576 257.631 163.979C254.271 158.678 254.295 152.172 256.762 146.985C259.226 141.803 264.093 138 270.383 138C276.773 138 281.688 141.943 284.19 147.315C286.696 152.695 286.742 159.434 283.431 164.897C281.406 168.234 279.732 171.568 278.714 174.681C277.699 177.786 277.32 180.729 277.957 183.257C278.048 183.62 278.028 183.786 278.015 183.842C277.992 183.846 277.952 183.849 277.889 183.845C277.681 183.832 277.37 183.748 276.965 183.577C276.567 183.41 276.122 183.178 275.657 182.909C274.726 182.37 273.759 181.705 273.018 181.17C272.649 180.904 272.338 180.671 272.121 180.505C272.012 180.422 271.927 180.357 271.868 180.312L271.803 180.26L271.786 180.247L271.781 180.244ZM278.042 183.833C278.042 183.833 278.04 183.836 278.03 183.838C278.037 183.833 278.042 183.833 278.042 183.833Z" fill="#F3D46B" stroke="#424242"/>
<path d="M271 179V166" stroke="#424242" stroke-linecap="round"/>
<path d="M264.759 179H277.24C277.659 179 278 179.401 278 179.894V183.345C278 185.916 276.228 188 274.043 188H267.957C265.771 188 264 185.916 264 183.345V179.894C264 179.401 264.339 179 264.759 179Z" fill="white" stroke="#424242"/>
<path d="M265 165H276" stroke="#424242" stroke-linecap="round"/>
<path d="M273 183H278" stroke="#424242" stroke-linecap="round"/>
<path d="M264 185H269" stroke="#424242" stroke-linecap="round"/>
<path d="M259 136L254 128" stroke="#424242" stroke-linecap="round"/>
<path d="M283 136L288 128" stroke="#424242" stroke-linecap="round"/>
<path d="M253 145L245 139" stroke="#424242" stroke-linecap="round"/>
<path d="M288 145L297 139" stroke="#424242" stroke-linecap="round"/>
<path d="M285.438 202H40.5613C38.5944 202 37 203.568 37 205.501C37 207.434 38.5944 209 40.5613 209H285.438C287.405 209 289 207.434 289 205.501C289 203.568 287.405 202 285.438 202Z" fill="#F4F4F4" stroke="#424242"/>
<circle cx="161" cy="129" r="38" fill="#F3D46B"/>
<path d="M176 130L154 114V146L176 130Z" fill="#110056"/>
</svg>
