<svg width="320" height="266" viewBox="0 0 320 266" fill="none" xmlns="http://www.w3.org/2000/svg">
<rect width="320" height="266" fill="white" fill-opacity="0.01"/>
<path fill-rule="evenodd" clip-rule="evenodd" d="M214.471 53.4972C253.382 68.9435 298.403 50.7273 311.324 86.3111C323.938 121.053 302.14 165.569 275.55 195.957C251.292 223.68 210.813 228.169 173.612 240.327C132.213 253.858 104.331 235.902 71.1396 213.352C39.3212 191.735 1.31378 181.886 6.4737 145.85C10.5594 117.322 34.5614 116.846 54.1149 92.8627C73.1114 69.5631 60.2534 41.696 113.94 20.9645C170.207 10.9032 186.014 42.2011 214.471 53.4972Z" fill="#F3F1FC"/>
<path d="M119.11 193.543L121.864 194.92C133.338 201.805 146.19 205.018 159.041 205.018C199.431 205.018 232.477 171.972 232.477 131.582C232.477 112.305 224.674 93.487 210.905 79.7178C197.136 65.9486 178.777 58.146 159.041 58.146C118.651 58.146 85.6051 91.1922 86.0641 132.041C86.0641 145.81 90.1948 159.12 97.0794 170.595L98.9153 173.349L91.5717 200.428L119.11 193.543Z" fill="#00E676"/>
<path d="M218.349 72.7229L218.354 72.728C233.864 88.2382 242.533 109.223 242.533 131.582C242.533 177.666 205.118 215.533 159.041 215.533C145.349 215.533 131.665 212.339 119.353 205.499L119.179 205.402L118.985 205.452L75.2995 216.711L87.0053 173.94L87.058 173.747L86.9638 173.572C80.1119 160.782 76.0077 146.634 76.0077 132.041L76.0076 132.036C75.5514 85.959 112.962 48.0898 159.5 48.0898C181.401 48.0898 202.841 56.7592 218.349 72.7229ZM94.3011 197.547L94.084 198.372L94.9098 198.159L121.349 191.321L123.917 192.605C134.554 199.074 147.03 202.305 159.5 202.305C172.441 202.305 185.386 198.609 196.026 191.672C229.31 171.327 239.008 128.335 218.675 95.0625C198.332 61.7734 155.337 52.0724 122.062 72.4068C88.7741 92.7496 79.0707 136.205 99.4083 169.022L99.4127 169.03L99.4173 169.036L101.128 171.603L94.3011 197.547ZM200.622 151.89C200.679 151.932 200.727 151.97 200.767 152.003V154.94C200.308 157.236 199.859 159.44 198.984 161.192C198.569 162.021 197.72 162.878 196.782 163.816C196.352 164.246 195.92 164.571 195.459 164.917L195.45 164.924C194.995 165.264 194.513 165.627 194.028 166.111L193.111 167.029C192.718 167.421 192.328 167.621 191.827 167.843C191.765 167.87 191.702 167.898 191.637 167.927C191.177 168.128 190.631 168.367 190 168.784C188.203 169.679 185.544 170.554 183.367 170.554H178.856C178.144 170.327 177.335 170.212 176.579 170.104L176.553 170.1C175.738 169.984 174.983 169.874 174.345 169.662L174.329 169.656L174.313 169.652C162.021 166.465 151.09 160.552 141.518 152.359C141.031 151.645 140.436 151.055 139.814 150.489C139.61 150.304 139.406 150.123 139.2 149.942C138.747 149.541 138.289 149.136 137.823 148.67L135.987 146.834L135.981 146.828L135.975 146.823C128.688 139.991 123.22 132.249 119.116 123.593L118.667 122.245L118.66 122.225L118.652 122.206C117.296 119.042 116.397 115.438 116.397 111.846C116.397 106.927 118.184 101.995 121.322 97.9491C121.795 97.4725 122.151 96.9975 122.487 96.5504L122.494 96.5411C122.825 96.0996 123.136 95.685 123.54 95.2727C124.013 95.0247 124.476 94.6779 124.898 94.3613L124.918 94.3463C125.386 93.9952 125.808 93.681 126.218 93.4755L126.291 93.4392L126.348 93.3819L126.668 93.0625C127.114 93.0346 127.545 92.9267 127.926 92.8314L127.952 92.8249C128.423 92.7072 128.821 92.6104 129.208 92.6104H134.175C134.815 92.8265 135.315 93.0347 135.758 93.3296C136.205 93.6278 136.614 94.0294 137.036 94.657C137.727 96.0436 139.431 99.7931 141.026 103.496C141.828 105.358 142.6 107.203 143.2 108.724C143.807 110.263 144.218 111.423 144.323 111.944L144.329 111.975L144.338 112.004C144.728 113.173 144.353 114.825 143.505 116.119C143.02 116.615 142.659 117.217 142.333 117.761L142.319 117.785C141.968 118.369 141.654 118.887 141.246 119.295C140.543 119.999 139.729 120.93 139.096 121.678C138.778 122.054 138.504 122.386 138.309 122.624C138.211 122.743 138.133 122.839 138.08 122.905L138.018 122.981L138.013 122.989C137.683 123.332 137.552 123.797 137.491 124.225C137.428 124.662 137.428 125.151 137.428 125.595V125.615V125.734L137.481 125.839C137.644 126.166 137.741 126.419 137.832 126.658C137.862 126.737 137.892 126.814 137.923 126.891C138.04 127.183 138.174 127.464 138.433 127.743L138.858 128.593L138.863 128.603L138.868 128.612C141.196 132.802 144.446 136.512 147.672 139.738C148.151 140.217 148.742 140.69 149.306 141.141L149.32 141.152C149.899 141.616 150.449 142.057 150.885 142.492C154.615 146.222 159.263 149.006 164.342 151.314L164.352 151.319L164.363 151.323L166.568 152.205C166.84 152.455 167.196 152.685 167.538 152.855C167.897 153.035 168.329 153.195 168.679 153.195H169.138C170.199 153.195 171.285 152.672 171.85 151.601C175.037 147.96 176.746 146.022 177.659 144.995C178.117 144.479 178.374 144.194 178.516 144.038C178.563 143.986 178.597 143.949 178.621 143.923C179.504 143.482 180.318 143.098 181.531 143.098C181.619 143.098 181.737 143.145 181.996 143.274C182.006 143.28 182.017 143.285 182.029 143.291C182.206 143.38 182.476 143.516 182.775 143.549C185.066 144.692 188.01 146.05 190.389 147.126C191.596 147.672 192.658 148.146 193.419 148.483C193.8 148.652 194.105 148.787 194.315 148.879L194.557 148.985L194.619 149.013L194.634 149.019L194.635 149.02L194.639 149.022L194.64 149.022L194.641 149.022L199.674 151.31C200.099 151.524 200.415 151.735 200.622 151.89Z" fill="white" stroke="black"/>
</svg>
