<svg width="82" height="82" viewBox="0 0 82 82" fill="none" xmlns="http://www.w3.org/2000/svg">
<rect width="82" height="82" fill="white" fill-opacity="0.01"/>
<path d="M24.9428 51.6568C21.9489 39.8922 21.9172 19.459 38.8313 4.09769C39.9401 3.09069 41.5542 3.06155 42.6075 4C50.3641 10.9113 60.7954 26.9923 56.7144 50.933C56.2804 53.4791 53.9801 55.302 51.2896 55.302H30.0043C27.5841 55.302 25.4988 53.8416 24.9428 51.6568Z" fill="white" stroke="#110056" stroke-width="2.31923"/>
<path d="M37.9762 13.3722C27.5488 23.7392 27.045 37.0075 28.7414 45.3941C29.314 48.2253 31.9524 50 34.8409 50H46.112C49.3293 50 52.1866 47.7984 52.6057 44.6085C54.6308 29.1946 48.4516 18.5042 43.2829 13.3002C41.8092 11.8164 39.4592 11.8978 37.9762 13.3722Z" fill="#F3D46B"/>
<path d="M23.451 44.7914L23.4446 44.7477L23.4416 44.7036L23.1602 40.5873C17.5267 42.5083 15.6124 47.5512 15.3175 51.6926C16.5536 50.7786 18.1423 50.1939 19.6533 49.8151C21.1923 49.4292 22.774 49.2274 24.0839 49.1444L23.451 44.7914Z" fill="white" stroke="#110056" stroke-width="2.31923"/>
<path d="M57.9902 44.7914L57.9966 44.7477L57.9996 44.7036L58.281 40.5873C63.9145 42.5083 65.8288 47.5512 66.1236 51.6926C64.8876 50.7786 63.2988 50.1939 61.7879 49.8151C60.2488 49.4292 58.6672 49.2274 57.3573 49.1444L57.9902 44.7914Z" fill="white" stroke="#110056" stroke-width="2.31923"/>
<path d="M43.3583 64.8601H38.9942L37.0429 53.0063H45.3097L43.3583 64.8601Z" fill="white" stroke="#110056" stroke-width="2.31923"/>
<path d="M50.8134 65.5122V73.3436" stroke="#110056" stroke-width="2.31923" stroke-linecap="round"/>
<path d="M41.7018 72.1685V79.9999" stroke="#110056" stroke-width="2.31923" stroke-linecap="round"/>
<path d="M32.4143 66.7817V74.6132" stroke="#110056" stroke-width="2.31923" stroke-linecap="round"/>
<path d="M46.3928 34.3704C46.3928 37.5671 43.837 40.1339 40.7144 40.1339C37.5917 40.1339 35.036 37.5671 35.036 34.3704C35.036 31.1737 37.5917 28.6069 40.7144 28.6069C43.837 28.6069 46.3928 31.1737 46.3928 34.3704Z" fill="#110056" stroke="#110056" stroke-width="2.31923"/>
</svg>
